<?xml version="1.0" standalone="no"?>
<!DOCTYPE svg PUBLIC "-//W3C//DTD SVG 20010904//EN"
 "http://www.w3.org/TR/2001/REC-SVG-20010904/DTD/svg10.dtd">
<svg version="1.0" xmlns="http://www.w3.org/2000/svg"
 width="500.000000pt" height="179.000000pt" viewBox="0 0 500.000000 179.000000"
 preserveAspectRatio="xMidYMid meet">

<g transform="translate(0.000000,179.000000) scale(0.100000,-0.100000)"
fill="#FFFFFF" stroke="none">
<path d="M3121 1330 c-73 -22 -136 -41 -138 -44 -2 -2 9 -7 26 -11 17 -4 31
-11 31 -16 0 -5 -36 -155 -81 -334 l-81 -324 -31 -10 c-122 -43 -211 31 -224
186 -13 160 66 324 126 264 24 -24 35 -91 29 -171 -2 -33 -2 -60 1 -60 3 0 47
38 96 84 l90 84 -20 39 c-30 57 -73 75 -165 70 -90 -5 -156 -34 -221 -100 -76
-76 -128 -203 -129 -313 0 -38 -3 -41 -45 -62 -25 -12 -45 -20 -45 -18 0 2 29
113 65 247 35 133 63 245 61 247 -3 2 -42 -13 -88 -32 -45 -20 -84 -32 -86
-27 -2 7 -10 6 -22 -1 -15 -10 -27 -6 -70 24 -29 20 -58 34 -65 31 -30 -11
-63 -84 -157 -348 -69 -190 -68 -189 -74 -182 -3 3 18 88 46 188 45 159 52
191 47 243 -4 49 -11 65 -32 83 -32 28 -41 28 -82 3 -29 -17 -173 -177 -182
-201 -2 -6 20 1 49 16 29 14 54 24 57 21 4 -4 -30 -145 -92 -379 l-24 -88 101
3 101 3 34 90 c82 220 145 375 154 381 6 3 28 -7 51 -22 l40 -28 40 42 c22 24
37 35 34 25 -3 -10 -24 -87 -46 -172 -43 -166 -50 -252 -25 -301 34 -67 95
-46 187 65 34 41 65 75 69 75 3 0 11 -18 18 -39 22 -76 101 -131 183 -131 49
1 108 36 189 115 53 51 58 47 34 -31 -23 -77 -26 -74 84 -74 l98 0 63 167 c73
196 132 318 160 333 39 21 35 -19 -20 -179 -58 -167 -67 -238 -39 -296 12 -25
21 -31 53 -33 38 -3 43 0 113 74 67 71 73 75 73 50 0 -39 24 -91 51 -110 32
-22 97 -20 136 3 66 41 140 190 202 406 17 60 33 111 36 113 19 20 12 -31 -29
-186 -27 -106 -46 -200 -46 -233 0 -109 60 -151 131 -92 37 32 170 185 165
191 -2 2 -27 -9 -56 -23 -29 -14 -54 -25 -56 -22 -4 4 73 280 112 400 15 43
24 80 21 83 -2 2 -25 -5 -51 -16 -45 -19 -48 -19 -74 -2 -20 13 -47 17 -112
17 -71 0 -94 -4 -140 -26 -129 -62 -237 -206 -274 -369 -10 -45 -18 -58 -45
-74 -17 -10 -35 -16 -38 -13 -3 4 20 79 51 168 67 193 74 263 30 298 -52 41
-115 22 -182 -54 -53 -60 -103 -158 -164 -318 -27 -73 -54 -136 -60 -142 -7
-7 -8 -3 -3 13 17 56 225 794 225 798 0 7 -7 5 -149 -36z m717 -319 c2 -33
-10 -86 -48 -201 -68 -207 -101 -263 -144 -247 -55 21 38 383 122 470 40 42
66 33 70 -22z"/>
<path d="M2373 1320 c-40 -24 -53 -48 -53 -98 0 -104 143 -102 178 3 29 88
-45 144 -125 95z"/>
<path d="M565 1239 c4 -8 17 -24 28 -36 19 -22 19 -22 -63 -357 l-81 -335 -42
-35 -42 -35 173 -1 c94 0 172 3 172 6 0 3 -9 19 -21 35 l-21 30 22 87 c12 48
24 94 26 103 3 13 23 17 92 22 149 9 271 68 327 157 36 57 58 145 52 203 -9
68 -43 110 -114 138 -53 20 -79 23 -287 27 -191 3 -227 2 -221 -9z m360 -19
c16 -6 32 -25 42 -47 19 -46 8 -134 -31 -257 -28 -89 -65 -142 -112 -162 -40
-17 -94 -18 -94 -3 0 10 106 438 115 467 5 15 44 16 80 2z"/>
<path d="M1415 1076 c-96 -30 -189 -106 -247 -201 -67 -108 -105 -262 -86
-348 14 -68 56 -101 121 -94 57 5 101 42 147 122 33 59 89 209 120 320 21 75
34 104 44 94 2 -2 -18 -89 -45 -194 -51 -195 -56 -254 -27 -309 21 -41 61 -48
105 -19 30 20 177 193 170 200 -3 2 -28 -7 -56 -21 -28 -14 -52 -26 -55 -26
-4 0 115 417 133 463 12 32 14 32 -46 8 -47 -18 -49 -18 -88 0 -47 21 -131 24
-190 5z m53 -28 c22 -22 13 -71 -43 -238 -61 -182 -95 -250 -125 -250 -49 0
-47 104 7 275 53 168 119 255 161 213z"/>
<path d="M4237 1074 c-25 -14 -191 -203 -184 -211 2 -1 26 10 55 25 28 14 53
25 55 22 2 -3 2 -128 -1 -279 l-5 -273 -44 -20 c-24 -11 -81 -22 -126 -26
l-81 -7 -24 -78 c-13 -43 -21 -81 -18 -84 21 -21 216 94 334 197 196 171 405
480 466 688 l15 52 -103 0 -103 0 -6 -108 c-7 -117 -25 -215 -57 -306 -18 -55
-69 -152 -74 -144 -1 2 2 100 7 219 10 236 6 300 -24 330 -23 23 -44 24 -82 3z"/>
</g>
</svg>
